<svg width="270" height="218" viewBox="0 0 270 218" fill="none" xmlns="http://www.w3.org/2000/svg">
<path d="M135 87.5L120 108.5L135 131L149.5 108.5L135 87.5Z" fill="#5261EC"/>
<circle cx="60" cy="65" r="49" fill="white"/>
<circle cx="209" cy="65" r="49" fill="white"/>
<circle cx="211" cy="63" r="30" fill="#639DDE"/>
<circle cx="211.5" cy="62.5" r="18.5" fill="black"/>
<circle cx="62" cy="63" r="30" fill="#5E59EF"/>
<circle cx="62.5" cy="62.5" r="18.5" fill="#030303"/>
<path d="M43 54C30.6 52.8 21.3333 43.3333 18.5 39L22.5 33.5L27.5 28.5L43 25L96 39.5L106.5 80L103 88.5L99.5 94C89.5 70 58.5 55.5 43 54Z" fill="#A7A7A7" fill-opacity="0.5"/>
<path d="M226.5 54C238.9 52.8 247.667 43.8333 250.5 39.5L240.5 28L226.5 25L173.5 39.5L162.5 79L165.5 87L169.5 94C179.5 70 211 55.5 226.5 54Z" fill="#A7A7A7" fill-opacity="0.5"/>
<path d="M52 46.4912C44 44.0912 32.6667 34.1579 28 29.4912C77.6 25.4912 101.333 61.5 107 79.5L104 86.4912C103.5 84.8246 101.5 80.0912 97.5 74.4912C92.5 67.4912 62 49.4912 52 46.4912Z" fill="#4B4B4B"/>
<path d="M218 47.327C226 44.927 237.333 34.9937 242 30.327C192.4 26.327 167.167 60 161.5 78L163.5 83.5L166 88.5C166.5 86.8333 168.5 80.927 172.5 75.327C177.5 68.327 208 50.327 218 47.327Z" fill="#4B4B4B"/>
<path d="M54 41C15.6 26.6 2 7.66667 0 0C124 4.8 131.667 72 120 105C115 93.5 102 59 54 41Z" fill="white"/>
<path d="M269.5 0C141.5 5.2 136.833 72.1667 150.5 105C154.167 89 171.3 54.3 210.5 43.5C249.7 32.7 266.167 10 269.5 0Z" fill="white"/>
<circle cx="69" cy="61" r="5" fill="white"/>
<circle cx="202" cy="61" r="5" fill="white"/>
<path d="M67.968 199.96C63.36 199.96 59.4133 198.957 56.128 196.952C52.8427 194.925 50.3147 192.109 48.544 188.504C46.7947 184.899 45.92 180.717 45.92 175.96C45.92 171.203 46.7947 167.021 48.544 163.416C50.3147 159.811 52.8427 157.005 56.128 155C59.4133 152.973 63.36 151.96 67.968 151.96C72.576 151.96 76.5227 152.973 79.808 155C83.1147 157.005 85.6427 159.811 87.392 163.416C89.1627 167.021 90.048 171.203 90.048 175.96C90.048 180.717 89.1627 184.899 87.392 188.504C85.6427 192.109 83.1147 194.925 79.808 196.952C76.5227 198.957 72.576 199.96 67.968 199.96ZM67.968 192.696C71.0613 192.717 73.632 192.035 75.68 190.648C77.7493 189.261 79.296 187.309 80.32 184.792C81.3653 182.275 81.888 179.331 81.888 175.96C81.888 172.589 81.3653 169.667 80.32 167.192C79.296 164.696 77.7493 162.755 75.68 161.368C73.632 159.981 71.0613 159.267 67.968 159.224C64.8747 159.203 62.304 159.885 60.256 161.272C58.208 162.659 56.6613 164.611 55.616 167.128C54.592 169.645 54.08 172.589 54.08 175.96C54.08 179.331 54.592 182.264 55.616 184.76C56.64 187.235 58.176 189.165 60.224 190.552C62.2933 191.939 64.8747 192.653 67.968 192.696ZM103.778 199L93.2175 164.376L100.77 164.44L107.522 186.616L114.37 164.44H120.866L127.682 186.616L134.466 164.44H142.018L131.458 199H125.442L117.602 175.224L109.794 199H103.778ZM148.433 199V151.96H156.145V199H148.433ZM181.442 199.96C177.943 199.96 174.871 199.203 172.226 197.688C169.581 196.173 167.511 194.072 166.018 191.384C164.546 188.696 163.81 185.603 163.81 182.104C163.81 178.328 164.535 175.053 165.986 172.28C167.437 169.485 169.453 167.32 172.034 165.784C174.615 164.248 177.602 163.48 180.994 163.48C184.578 163.48 187.618 164.323 190.114 166.008C192.631 167.672 194.498 170.029 195.714 173.08C196.93 176.131 197.389 179.725 197.09 183.864H189.442V181.048C189.421 177.293 188.759 174.552 187.458 172.824C186.157 171.096 184.109 170.232 181.314 170.232C178.157 170.232 175.81 171.213 174.274 173.176C172.738 175.117 171.97 177.965 171.97 181.72C171.97 185.219 172.738 187.928 174.274 189.848C175.81 191.768 178.05 192.728 180.994 192.728C182.893 192.728 184.525 192.312 185.89 191.48C187.277 190.627 188.343 189.4 189.09 187.8L196.706 190.104C195.383 193.219 193.335 195.64 190.562 197.368C187.81 199.096 184.77 199.96 181.442 199.96ZM169.538 183.864V178.04H193.314V183.864H169.538ZM224.486 199C222.203 199.427 219.963 199.608 217.766 199.544C215.59 199.501 213.638 199.107 211.91 198.36C210.182 197.592 208.87 196.387 207.974 194.744C207.185 193.251 206.769 191.725 206.726 190.168C206.683 188.611 206.662 186.851 206.662 184.888V154.84H214.342V184.44C214.342 185.827 214.353 187.043 214.374 188.088C214.417 189.133 214.641 189.987 215.046 190.648C215.814 191.928 217.041 192.643 218.726 192.792C220.411 192.941 222.331 192.856 224.486 192.536V199ZM200.39 170.488V164.44H224.486V170.488H200.39Z" fill="white"/>
</svg>
