<svg width="271" height="219" viewBox="0 0 271 219" fill="none" xmlns="http://www.w3.org/2000/svg">
<path d="M135.328 87.7637L120.328 108.764L135.328 131.264L149.828 108.764L135.328 87.7637Z" fill="#5261EC"/>
<circle cx="60.3281" cy="65.2637" r="48.75" fill="white" stroke="black" stroke-width="0.5"/>
<circle cx="209.328" cy="65.2637" r="48.75" fill="white" stroke="black" stroke-width="0.5"/>
<circle cx="211.328" cy="63.2637" r="30" fill="#639DDE"/>
<circle cx="211.828" cy="62.7637" r="18.5" fill="black"/>
<circle cx="62.3281" cy="63.2637" r="30" fill="#5E59EF"/>
<circle cx="62.8281" cy="62.7637" r="18.5" fill="#030303"/>
<path d="M43.3281 54.2637C30.9281 53.0637 21.6615 43.597 18.8281 39.2637L22.8281 33.7637L27.8281 28.7637L43.3281 25.2637L96.3281 39.7637L106.828 80.2637L103.328 88.7637L99.8281 94.2637C89.8281 70.2637 58.8281 55.7637 43.3281 54.2637Z" fill="#A7A7A7" fill-opacity="0.5"/>
<path d="M226.828 54.2637C239.228 53.0637 247.995 44.097 250.828 39.7637L240.828 28.2637L226.828 25.2637L173.828 39.7637L162.828 79.2637L165.828 87.2637L169.828 94.2637C179.828 70.2637 211.328 55.7637 226.828 54.2637Z" fill="#A7A7A7" fill-opacity="0.5"/>
<path d="M52.3281 46.7549C44.3281 44.3549 32.9948 34.4216 28.3281 29.7549C77.9281 25.7549 101.661 61.7637 107.328 79.7637L104.328 86.7549C103.828 85.0882 101.828 80.3549 97.8281 74.7549C92.8281 67.7549 62.3281 49.7549 52.3281 46.7549Z" fill="#4B4B4B"/>
<path d="M218.328 47.5907C226.328 45.1907 237.661 35.2573 242.328 30.5907C192.728 26.5907 167.495 60.2637 161.828 78.2637L163.828 83.7637L166.328 88.7637C166.828 87.097 168.828 81.1907 172.828 75.5907C177.828 68.5907 208.328 50.5907 218.328 47.5907Z" fill="#4B4B4B"/>
<path d="M54.3281 41.2637C15.9281 26.8637 2.32812 7.93034 0.328125 0.263672C124.328 5.06367 131.995 72.2637 120.328 105.264C115.328 93.7637 102.328 59.2637 54.3281 41.2637Z" fill="white"/>
<path d="M269.828 0.263672C141.828 5.46367 137.161 72.4303 150.828 105.264C154.495 89.2637 171.628 54.5637 210.828 43.7637C250.028 32.9637 266.495 10.2637 269.828 0.263672Z" fill="white"/>
<path d="M54.3281 41.2637C15.9281 26.8637 2.32812 7.93034 0.328125 0.263672C124.328 5.06367 131.995 72.2637 120.328 105.264C115.328 93.7637 102.328 59.2637 54.3281 41.2637Z" stroke="black" stroke-width="0.5"/>
<path d="M269.828 0.263672C141.828 5.46367 137.161 72.4303 150.828 105.264C154.495 89.2637 171.628 54.5637 210.828 43.7637C250.028 32.9637 266.495 10.2637 269.828 0.263672Z" stroke="black" stroke-width="0.5"/>
<circle cx="69.3281" cy="61.2637" r="5" fill="white"/>
<circle cx="202.328" cy="61.2637" r="5" fill="white"/>
<path d="M68.2961 200.224C63.6881 200.224 59.7415 199.221 56.4561 197.216C53.1708 195.189 50.6428 192.373 48.8721 188.768C47.1228 185.162 46.2481 180.981 46.2481 176.224C46.2481 171.466 47.1228 167.285 48.8721 163.68C50.6428 160.074 53.1708 157.269 56.4561 155.264C59.7415 153.237 63.6881 152.224 68.2961 152.224C72.9041 152.224 76.8508 153.237 80.1361 155.264C83.4428 157.269 85.9708 160.074 87.7201 163.68C89.4908 167.285 90.3761 171.466 90.3761 176.224C90.3761 180.981 89.4908 185.162 87.7201 188.768C85.9708 192.373 83.4428 195.189 80.1361 197.216C76.8508 199.221 72.9041 200.224 68.2961 200.224ZM68.2961 192.96C71.3895 192.981 73.9601 192.298 76.0081 190.912C78.0775 189.525 79.6241 187.573 80.6481 185.056C81.6935 182.538 82.2161 179.594 82.2161 176.224C82.2161 172.853 81.6935 169.93 80.6481 167.456C79.6241 164.96 78.0775 163.018 76.0081 161.632C73.9601 160.245 71.3895 159.53 68.2961 159.488C65.2028 159.466 62.6321 160.149 60.5841 161.536C58.5361 162.922 56.9895 164.874 55.9441 167.392C54.9201 169.909 54.4081 172.853 54.4081 176.224C54.4081 179.594 54.9201 182.528 55.9441 185.024C56.9681 187.498 58.5041 189.429 60.5521 190.816C62.6215 192.202 65.2028 192.917 68.2961 192.96ZM104.106 199.264L93.5456 164.64L101.098 164.704L107.85 186.88L114.698 164.704H121.194L128.01 186.88L134.794 164.704H142.346L131.786 199.264H125.77L117.93 175.488L110.122 199.264H104.106ZM148.761 199.264V152.224H156.473V199.264H148.761ZM181.77 200.224C178.271 200.224 175.199 199.466 172.554 197.952C169.909 196.437 167.839 194.336 166.346 191.648C164.874 188.96 164.138 185.866 164.138 182.368C164.138 178.592 164.863 175.317 166.314 172.544C167.765 169.749 169.781 167.584 172.362 166.048C174.943 164.512 177.93 163.744 181.322 163.744C184.906 163.744 187.946 164.586 190.442 166.272C192.959 167.936 194.826 170.293 196.042 173.344C197.258 176.394 197.717 179.989 197.418 184.128H189.77V181.312C189.749 177.557 189.087 174.816 187.786 173.088C186.485 171.36 184.437 170.496 181.642 170.496C178.485 170.496 176.138 171.477 174.602 173.44C173.066 175.381 172.298 178.229 172.298 181.984C172.298 185.482 173.066 188.192 174.602 190.112C176.138 192.032 178.378 192.992 181.322 192.992C183.221 192.992 184.853 192.576 186.218 191.744C187.605 190.89 188.671 189.664 189.418 188.064L197.034 190.368C195.711 193.482 193.663 195.904 190.89 197.632C188.138 199.36 185.098 200.224 181.77 200.224ZM169.866 184.128V178.304H193.642V184.128H169.866ZM224.814 199.264C222.531 199.69 220.291 199.872 218.094 199.808C215.918 199.765 213.966 199.37 212.238 198.624C210.51 197.856 209.198 196.65 208.302 195.008C207.513 193.514 207.097 191.989 207.054 190.432C207.011 188.874 206.99 187.114 206.99 185.152V155.104H214.67V184.704C214.67 186.09 214.681 187.306 214.702 188.352C214.745 189.397 214.969 190.25 215.374 190.912C216.142 192.192 217.369 192.906 219.054 193.056C220.739 193.205 222.659 193.12 224.814 192.8V199.264ZM200.718 170.752V164.704H224.814V170.752H200.718Z" fill="black"/>
</svg>
