<svg width="271" height="132" viewBox="0 0 271 132" fill="none" xmlns="http://www.w3.org/2000/svg">
<path d="M135.328 87.7637L120.328 108.764L135.328 131.264L149.828 108.764L135.328 87.7637Z" fill="#5261EC"/>
<circle cx="60.3281" cy="65.2637" r="48.75" fill="white" stroke="black" stroke-width="0.5"/>
<circle cx="209.328" cy="65.2637" r="48.75" fill="white" stroke="black" stroke-width="0.5"/>
<circle cx="211.328" cy="63.2637" r="30" fill="#639DDE"/>
<circle cx="211.828" cy="62.7637" r="18.5" fill="black"/>
<circle cx="62.3281" cy="63.2637" r="30" fill="#5E59EF"/>
<circle cx="62.8281" cy="62.7637" r="18.5" fill="#030303"/>
<path d="M43.3281 54.2637C30.9281 53.0637 21.6615 43.597 18.8281 39.2637L22.8281 33.7637L27.8281 28.7637L43.3281 25.2637L96.3281 39.7637L106.828 80.2637L103.328 88.7637L99.8281 94.2637C89.8281 70.2637 58.8281 55.7637 43.3281 54.2637Z" fill="#A7A7A7" fill-opacity="0.5"/>
<path d="M226.828 54.2637C239.228 53.0637 247.995 44.097 250.828 39.7637L240.828 28.2637L226.828 25.2637L173.828 39.7637L162.828 79.2637L165.828 87.2637L169.828 94.2637C179.828 70.2637 211.328 55.7637 226.828 54.2637Z" fill="#A7A7A7" fill-opacity="0.5"/>
<path d="M52.3281 46.7549C44.3281 44.3549 32.9948 34.4216 28.3281 29.7549C77.9281 25.7549 101.661 61.7637 107.328 79.7637L104.328 86.7549C103.828 85.0882 101.828 80.3549 97.8281 74.7549C92.8281 67.7549 62.3281 49.7549 52.3281 46.7549Z" fill="#4B4B4B"/>
<path d="M218.328 47.5907C226.328 45.1907 237.661 35.2573 242.328 30.5907C192.728 26.5907 167.495 60.2637 161.828 78.2637L163.828 83.7637L166.328 88.7637C166.828 87.097 168.828 81.1907 172.828 75.5907C177.828 68.5907 208.328 50.5907 218.328 47.5907Z" fill="#4B4B4B"/>
<path d="M54.3281 41.2637C15.9281 26.8637 2.32812 7.93034 0.328125 0.263672C124.328 5.06367 131.995 72.2637 120.328 105.264C115.328 93.7637 102.328 59.2637 54.3281 41.2637Z" fill="white"/>
<path d="M269.828 0.263672C141.828 5.46367 137.161 72.4303 150.828 105.264C154.495 89.2637 171.628 54.5637 210.828 43.7637C250.028 32.9637 266.495 10.2637 269.828 0.263672Z" fill="white"/>
<path d="M54.3281 41.2637C15.9281 26.8637 2.32812 7.93034 0.328125 0.263672C124.328 5.06367 131.995 72.2637 120.328 105.264C115.328 93.7637 102.328 59.2637 54.3281 41.2637Z" stroke="black" stroke-width="0.5"/>
<path d="M269.828 0.263672C141.828 5.46367 137.161 72.4303 150.828 105.264C154.495 89.2637 171.628 54.5637 210.828 43.7637C250.028 32.9637 266.495 10.2637 269.828 0.263672Z" stroke="black" stroke-width="0.5"/>
<circle cx="69.3281" cy="61.2637" r="5" fill="white"/>
<circle cx="202.328" cy="61.2637" r="5" fill="white"/>
</svg>
