<svg width="270" height="131" viewBox="0 0 270 131" fill="none" xmlns="http://www.w3.org/2000/svg">
<path d="M135 87.5L120 108.5L135 131L149.5 108.5L135 87.5Z" fill="#5261EC"/>
<circle cx="60" cy="65" r="49" fill="white"/>
<circle cx="209" cy="65" r="49" fill="white"/>
<circle cx="211" cy="63" r="30" fill="#639DDE"/>
<circle cx="211.5" cy="62.5" r="18.5" fill="black"/>
<circle cx="62" cy="63" r="30" fill="#5E59EF"/>
<circle cx="62.5" cy="62.5" r="18.5" fill="#030303"/>
<path d="M43 54C30.6 52.8 21.3333 43.3333 18.5 39L22.5 33.5L27.5 28.5L43 25L96 39.5L106.5 80L103 88.5L99.5 94C89.5 70 58.5 55.5 43 54Z" fill="#A7A7A7" fill-opacity="0.5"/>
<path d="M226.5 54C238.9 52.8 247.667 43.8333 250.5 39.5L240.5 28L226.5 25L173.5 39.5L162.5 79L165.5 87L169.5 94C179.5 70 211 55.5 226.5 54Z" fill="#A7A7A7" fill-opacity="0.5"/>
<path d="M52 46.4912C44 44.0912 32.6667 34.1579 28 29.4912C77.6 25.4912 101.333 61.5 107 79.5L104 86.4912C103.5 84.8246 101.5 80.0912 97.5 74.4912C92.5 67.4912 62 49.4912 52 46.4912Z" fill="#4B4B4B"/>
<path d="M218 47.327C226 44.927 237.333 34.9937 242 30.327C192.4 26.327 167.167 60 161.5 78L163.5 83.5L166 88.5C166.5 86.8333 168.5 80.927 172.5 75.327C177.5 68.327 208 50.327 218 47.327Z" fill="#4B4B4B"/>
<path d="M54 41C15.6 26.6 2 7.66667 0 0C124 4.8 131.667 72 120 105C115 93.5 102 59 54 41Z" fill="white"/>
<path d="M269.5 0C141.5 5.2 136.833 72.1667 150.5 105C154.167 89 171.3 54.3 210.5 43.5C249.7 32.7 266.167 10 269.5 0Z" fill="white"/>
<circle cx="69" cy="61" r="5" fill="white"/>
<circle cx="202" cy="61" r="5" fill="white"/>
</svg>
